<mxfile host="app.diagrams.net" modified="2024-04-18T03:24:00.491Z" agent="Mozilla/5.0 (Windows NT 10.0; Win64; x64) AppleWebKit/537.36 (KHTML, like Gecko) Chrome/123.0.0.0 Safari/537.36" etag="hX_qgCU9JToXqnurnidJ" version="24.2.5" type="google">
  <diagram name="Page-1" id="otVqqcOuoc6NpncY7Raj">
    <mxGraphModel grid="1" page="1" gridSize="10" guides="1" tooltips="1" connect="1" arrows="1" fold="1" pageScale="1" pageWidth="850" pageHeight="1100" math="0" shadow="0">
      <root>
        <mxCell id="0" />
        <mxCell id="1" parent="0" />
        <mxCell id="GLFAHEb9D5CYDE2ms4Of-14" value="" style="edgeStyle=orthogonalEdgeStyle;rounded=0;orthogonalLoop=1;jettySize=auto;html=1;" edge="1" parent="1" source="GLFAHEb9D5CYDE2ms4Of-2" target="GLFAHEb9D5CYDE2ms4Of-4">
          <mxGeometry relative="1" as="geometry" />
        </mxCell>
        <mxCell id="GLFAHEb9D5CYDE2ms4Of-2" value="DATA LOADING AND EXPLORATION&lt;div&gt;&lt;br&gt;&lt;/div&gt;&lt;div&gt;&lt;ul&gt;&lt;li&gt;&lt;b&gt;&lt;i&gt;load dataset&amp;nbsp;&lt;/i&gt;&lt;/b&gt;&lt;/li&gt;&lt;li&gt;&lt;b&gt;&lt;i&gt;explore dataset&lt;/i&gt;&lt;/b&gt;&lt;/li&gt;&lt;/ul&gt;&lt;/div&gt;" style="rounded=0;whiteSpace=wrap;html=1;align=left;" vertex="1" parent="1">
          <mxGeometry x="10" y="90" width="180" height="140" as="geometry" />
        </mxCell>
        <mxCell id="GLFAHEb9D5CYDE2ms4Of-15" value="" style="edgeStyle=orthogonalEdgeStyle;rounded=0;orthogonalLoop=1;jettySize=auto;html=1;" edge="1" parent="1" source="GLFAHEb9D5CYDE2ms4Of-4" target="GLFAHEb9D5CYDE2ms4Of-5">
          <mxGeometry relative="1" as="geometry" />
        </mxCell>
        <mxCell id="GLFAHEb9D5CYDE2ms4Of-4" value="DATA PROCESSING&amp;nbsp;&lt;div&gt;&lt;ul&gt;&lt;li&gt;&lt;i&gt;data cleaning&amp;nbsp;&lt;/i&gt;&lt;/li&gt;&lt;li&gt;&lt;i&gt;text pre processing&amp;nbsp;&lt;/i&gt;&lt;/li&gt;&lt;li&gt;&lt;i&gt;feature extraction&lt;/i&gt;&lt;/li&gt;&lt;/ul&gt;&lt;/div&gt;" style="rounded=0;whiteSpace=wrap;html=1;align=left;" vertex="1" parent="1">
          <mxGeometry x="150" y="300" width="170" height="140" as="geometry" />
        </mxCell>
        <mxCell id="GLFAHEb9D5CYDE2ms4Of-5" value="MODEL SELECTION AND EVALUVATION&lt;div&gt;&lt;ul&gt;&lt;li&gt;train model&lt;/li&gt;&lt;li&gt;evaluate model&lt;/li&gt;&lt;li&gt;hyparameter tuning&amp;nbsp;&lt;/li&gt;&lt;li&gt;model comparison&lt;/li&gt;&lt;/ul&gt;&lt;/div&gt;" style="rounded=0;whiteSpace=wrap;html=1;align=left;" vertex="1" parent="1">
          <mxGeometry x="290" y="500" width="190" height="120" as="geometry" />
        </mxCell>
        <mxCell id="GLFAHEb9D5CYDE2ms4Of-6" value="DEPLOYMENT&lt;div&gt;&lt;ul&gt;&lt;li&gt;&lt;i&gt;deploy model&lt;/i&gt;&lt;/li&gt;&lt;li&gt;&lt;i&gt;develop&lt;/i&gt;&lt;/li&gt;&lt;li&gt;&lt;i&gt;application/web&lt;/i&gt;&lt;/li&gt;&lt;li&gt;&lt;i&gt;monitoring and maintanence&lt;/i&gt;&lt;/li&gt;&lt;/ul&gt;&lt;/div&gt;" style="rounded=0;whiteSpace=wrap;html=1;align=left;" vertex="1" parent="1">
          <mxGeometry x="450" y="670" width="190" height="130" as="geometry" />
        </mxCell>
        <mxCell id="GLFAHEb9D5CYDE2ms4Of-19" style="edgeStyle=orthogonalEdgeStyle;rounded=0;orthogonalLoop=1;jettySize=auto;html=1;exitX=0.75;exitY=1;exitDx=0;exitDy=0;entryX=0.597;entryY=0.002;entryDx=0;entryDy=0;entryPerimeter=0;" edge="1" parent="1" source="GLFAHEb9D5CYDE2ms4Of-5" target="GLFAHEb9D5CYDE2ms4Of-6">
          <mxGeometry relative="1" as="geometry" />
        </mxCell>
      </root>
    </mxGraphModel>
  </diagram>
</mxfile>
